<svg preserveAspectRatio="none" viewBox="0 0 1440 496" fill="none" xmlns="http://www.w3.org/2000/svg">
<path d="M1440 -5H0V425C0 425 110.5 495 360 495C766.5 495 810 425 1080 425C1300.5 425 1440 475 1440 475V-5Z" fill="#010304"/>
<path opacity="0.25" d="M1440 473.756C1440 473.756 1300.5 384 1080 384C810 384 766.5 495 360 495C110.5 495 0 410.024 0 410.024" stroke="#59569E"/>
<path opacity="0.25" d="M1440 475C1440 475 1300.5 312.5 1080 312.5C810 312.5 766.5 495 360 495C110.5 495 0 306.5 0 306.5" stroke="#D34CA3"/>
<path opacity="0.25" d="M1440 475C1440 475 1303 405 1082.5 405C812.5 405 766.5 495 360 495C110.5 495 0 420 0 420" stroke="#39477F"/>
<path opacity="0.25" d="M1440 475C1440 475 1300.5 181 1080 181C810 181 766.5 490 360 490C110.5 490 0 387.5 0 387.5" stroke="#F77C88"/>
<path opacity="0.25" d="M1440 475C1440 475 1300.5 88.5 1080 88.5C810 88.5 766.5 490 360 490C110.5 490 0 266 0 266" stroke="#FC9F95"/>
<path opacity="0.25" d="M1440 475C1440 475 1300.5 -14 1080 -14C810 -14 766.5 490 360 490C110.5 490 0 122.5 0 122.5" stroke="#FCC397"/>
<path opacity="0.25" d="M1440 475C1440 475 1300.5 353 1080 353C810 353 766.5 490 360 490C110.5 490 0 215 0 215" stroke="#9A50A5"/>
<path opacity="0.25" d="M1440 475C1440 475 1300.5 259.5 1080 259.5C810 259.5 766.5 493 360 493C110.5 493 0 355 0 355" stroke="#F25192"/>
<defs>
<linearGradient id="paint0_linear" x1="0" y1="-5" x2="1440" y2="477.5" gradientUnits="userSpaceOnUse">
<stop stop-color="#061621"/>
<stop offset="1" stop-color="#21373C"/>
</linearGradient>
</defs>
</svg>
